<svg width="30" height="30" viewBox="0 0 30 30" fill="none" xmlns="http://www.w3.org/2000/svg">
<path d="M14.9999 0.833496C13.1395 0.833496 11.2973 1.19993 9.57857 1.91187C7.85979 2.62381 6.29807 3.66732 4.98257 4.98282C2.32581 7.63958 0.833252 11.2429 0.833252 15.0002C0.833252 18.7574 2.32581 22.3607 4.98257 25.0175C6.29807 26.333 7.85979 27.3765 9.57857 28.0885C11.2973 28.8004 13.1395 29.1668 14.9999 29.1668C18.7572 29.1668 22.3605 27.6743 25.0173 25.0175C27.674 22.3607 29.1666 18.7574 29.1666 15.0002C29.1666 13.1398 28.8002 11.2976 28.0882 9.57881C27.3763 7.86003 26.3328 6.29831 25.0173 4.98282C23.7018 3.66732 22.14 2.62381 20.4213 1.91187C18.7025 1.19993 16.8603 0.833496 14.9999 0.833496ZM20.9499 20.9502L13.5833 16.4168V7.91683H15.7083V15.2835L22.0833 19.1085L20.9499 20.9502Z" fill="#0056A3"/>
</svg>
