<svg width="30" height="29" viewBox="0 0 30 29" fill="none" xmlns="http://www.w3.org/2000/svg">
<path d="M14.8639 0.480957C13.0035 0.480957 11.1614 0.847389 9.44258 1.55933C7.7238 2.27127 6.16208 3.31478 4.84659 4.63028C2.18982 7.28704 0.697266 10.8904 0.697266 14.6476C0.697266 18.4049 2.18982 22.0082 4.84659 24.665C6.16208 25.9805 7.7238 27.024 9.44258 27.7359C11.1614 28.4479 13.0035 28.8143 14.8639 28.8143C18.6212 28.8143 22.2245 27.3217 24.8813 24.665C27.538 22.0082 29.0306 18.4049 29.0306 14.6476C29.0306 12.7872 28.6642 10.9451 27.9522 9.22628C27.2403 7.5075 26.1968 5.94577 24.8813 4.63028C23.5658 3.31478 22.0041 2.27127 20.2853 1.55933C18.5665 0.847389 16.7243 0.480957 14.8639 0.480957ZM20.8139 20.5976L13.4473 16.0643V7.56429H15.5723V14.931L21.9473 18.756L20.8139 20.5976Z" fill="white"/>
</svg>
