<svg width="32" height="24" viewBox="0 0 32 24" fill="none" xmlns="http://www.w3.org/2000/svg">
<path d="M0.416748 23.3332V19.3665C0.416748 18.5638 0.623581 17.8257 1.03725 17.1523C1.45091 16.4789 1.99964 15.9656 2.68341 15.6124C4.1473 14.8804 5.6348 14.3312 7.14591 13.9648C8.65703 13.5983 10.1917 13.4156 11.7501 13.4165C13.3084 13.4165 14.8431 13.5998 16.3542 13.9662C17.8654 14.3327 19.3529 14.8814 20.8167 15.6124C21.5015 15.9665 22.0507 16.4803 22.4643 17.1537C22.878 17.8271 23.0844 18.5647 23.0834 19.3665V23.3332H0.416748ZM25.9167 23.3332V19.0832C25.9167 18.0443 25.6273 17.0465 25.0483 16.0898C24.4694 15.1331 23.6491 14.3128 22.5876 13.629C23.7917 13.7707 24.9251 14.013 25.9876 14.3558C27.0501 14.6986 28.0417 15.1175 28.9626 15.6124C29.8126 16.0846 30.4619 16.6097 30.9105 17.1877C31.3591 17.7657 31.5834 18.3975 31.5834 19.0832V23.3332H25.9167ZM11.7501 11.9999C10.1917 11.9999 8.85772 11.445 7.748 10.3353C6.63828 9.22557 6.08341 7.89154 6.08341 6.33321C6.08341 4.77487 6.63828 3.44085 7.748 2.33112C8.85772 1.2214 10.1917 0.66654 11.7501 0.66654C13.3084 0.66654 14.6424 1.2214 15.7522 2.33112C16.8619 3.44085 17.4167 4.77487 17.4167 6.33321C17.4167 7.89154 16.8619 9.22557 15.7522 10.3353C14.6424 11.445 13.3084 11.9999 11.7501 11.9999ZM25.9167 6.33321C25.9167 7.89154 25.3619 9.22557 24.2522 10.3353C23.1424 11.445 21.8084 11.9999 20.2501 11.9999C19.9904 11.9999 19.6598 11.9701 19.2584 11.9106C18.857 11.8511 18.5265 11.7864 18.2667 11.7165C18.9042 10.961 19.3944 10.1228 19.7372 9.20196C20.0801 8.28112 20.251 7.32487 20.2501 6.33321C20.2501 5.34154 20.0791 4.38529 19.7372 3.46446C19.3954 2.54362 18.9052 1.70543 18.2667 0.949873C18.5973 0.831818 18.9279 0.754846 19.2584 0.718957C19.589 0.683068 19.9195 0.665596 20.2501 0.66654C21.8084 0.66654 23.1424 1.2214 24.2522 2.33112C25.3619 3.44085 25.9167 4.77487 25.9167 6.33321Z" fill="#0056A3"/>
</svg>
